<mxfile host="Electron" modified="2025-03-18T20:16:50.221Z" agent="Mozilla/5.0 (X11; Linux x86_64) AppleWebKit/537.36 (KHTML, like Gecko) draw.io/24.4.6 Chrome/124.0.6367.207 Electron/30.0.6 Safari/537.36" etag="fFG-O1W84jQsDkX2i8iB" version="24.4.6" type="device">
  <diagram name="Page-1" id="GFB2aVVjtxJedDekhPc1">
    <mxGraphModel dx="1467" dy="887" grid="1" gridSize="10" guides="1" tooltips="1" connect="1" arrows="1" fold="1" page="1" pageScale="1" pageWidth="850" pageHeight="1100" math="0" shadow="0">
      <root>
        <mxCell id="0" />
        <mxCell id="1" parent="0" />
        <mxCell id="dlbEdaYmd-LPvivF5Iul-28" value="" style="rounded=0;whiteSpace=wrap;html=1;fontStyle=1;" vertex="1" parent="1">
          <mxGeometry x="170" y="50" width="510" height="180" as="geometry" />
        </mxCell>
        <mxCell id="dlbEdaYmd-LPvivF5Iul-12" style="edgeStyle=orthogonalEdgeStyle;rounded=0;orthogonalLoop=1;jettySize=auto;html=1;entryX=0.5;entryY=0;entryDx=0;entryDy=0;" edge="1" parent="1" source="dlbEdaYmd-LPvivF5Iul-1">
          <mxGeometry relative="1" as="geometry">
            <mxPoint x="425" y="410" as="targetPoint" />
          </mxGeometry>
        </mxCell>
        <mxCell id="dlbEdaYmd-LPvivF5Iul-1" value="«Component»&lt;br&gt;&lt;b&gt;UI&lt;/b&gt;" style="html=1;dropTarget=0;whiteSpace=wrap;" vertex="1" parent="1">
          <mxGeometry x="335" y="250" width="180" height="90" as="geometry" />
        </mxCell>
        <mxCell id="dlbEdaYmd-LPvivF5Iul-2" value="" style="shape=module;jettyWidth=8;jettyHeight=4;" vertex="1" parent="dlbEdaYmd-LPvivF5Iul-1">
          <mxGeometry x="1" width="20" height="20" relative="1" as="geometry">
            <mxPoint x="-27" y="7" as="offset" />
          </mxGeometry>
        </mxCell>
        <mxCell id="dlbEdaYmd-LPvivF5Iul-9" style="edgeStyle=orthogonalEdgeStyle;rounded=0;orthogonalLoop=1;jettySize=auto;html=1;entryX=0.5;entryY=0;entryDx=0;entryDy=0;endArrow=none;endFill=0;" edge="1" parent="1" source="dlbEdaYmd-LPvivF5Iul-3" target="dlbEdaYmd-LPvivF5Iul-1">
          <mxGeometry relative="1" as="geometry">
            <Array as="points">
              <mxPoint x="225" y="220" />
              <mxPoint x="425" y="220" />
            </Array>
          </mxGeometry>
        </mxCell>
        <mxCell id="dlbEdaYmd-LPvivF5Iul-3" value="Student" style="shape=umlActor;verticalLabelPosition=bottom;verticalAlign=top;html=1;outlineConnect=0;" vertex="1" parent="1">
          <mxGeometry x="210" y="100" width="30" height="60" as="geometry" />
        </mxCell>
        <mxCell id="dlbEdaYmd-LPvivF5Iul-7" style="edgeStyle=orthogonalEdgeStyle;rounded=0;orthogonalLoop=1;jettySize=auto;html=1;endArrow=none;endFill=0;" edge="1" parent="1" source="dlbEdaYmd-LPvivF5Iul-4" target="dlbEdaYmd-LPvivF5Iul-1">
          <mxGeometry relative="1" as="geometry" />
        </mxCell>
        <mxCell id="dlbEdaYmd-LPvivF5Iul-4" value="Teacher" style="shape=umlActor;verticalLabelPosition=bottom;verticalAlign=top;html=1;outlineConnect=0;" vertex="1" parent="1">
          <mxGeometry x="410" y="100" width="30" height="60" as="geometry" />
        </mxCell>
        <mxCell id="dlbEdaYmd-LPvivF5Iul-8" style="edgeStyle=orthogonalEdgeStyle;rounded=0;orthogonalLoop=1;jettySize=auto;html=1;entryX=0.5;entryY=0;entryDx=0;entryDy=0;endArrow=none;endFill=0;" edge="1" parent="1" source="dlbEdaYmd-LPvivF5Iul-5" target="dlbEdaYmd-LPvivF5Iul-1">
          <mxGeometry relative="1" as="geometry">
            <Array as="points">
              <mxPoint x="625" y="220" />
              <mxPoint x="425" y="220" />
            </Array>
          </mxGeometry>
        </mxCell>
        <mxCell id="dlbEdaYmd-LPvivF5Iul-5" value="Admin" style="shape=umlActor;verticalLabelPosition=bottom;verticalAlign=top;html=1;outlineConnect=0;" vertex="1" parent="1">
          <mxGeometry x="610" y="100" width="30" height="60" as="geometry" />
        </mxCell>
        <mxCell id="dlbEdaYmd-LPvivF5Iul-21" style="edgeStyle=orthogonalEdgeStyle;rounded=0;orthogonalLoop=1;jettySize=auto;html=1;" edge="1" parent="1" source="dlbEdaYmd-LPvivF5Iul-17" target="dlbEdaYmd-LPvivF5Iul-19">
          <mxGeometry relative="1" as="geometry" />
        </mxCell>
        <mxCell id="dlbEdaYmd-LPvivF5Iul-17" value="«Component»&lt;br&gt;&lt;b&gt;Business Logic&lt;/b&gt;" style="html=1;dropTarget=0;whiteSpace=wrap;" vertex="1" parent="1">
          <mxGeometry x="335" y="570" width="180" height="90" as="geometry" />
        </mxCell>
        <mxCell id="dlbEdaYmd-LPvivF5Iul-18" value="" style="shape=module;jettyWidth=8;jettyHeight=4;" vertex="1" parent="dlbEdaYmd-LPvivF5Iul-17">
          <mxGeometry x="1" width="20" height="20" relative="1" as="geometry">
            <mxPoint x="-27" y="7" as="offset" />
          </mxGeometry>
        </mxCell>
        <mxCell id="dlbEdaYmd-LPvivF5Iul-23" style="edgeStyle=orthogonalEdgeStyle;rounded=0;orthogonalLoop=1;jettySize=auto;html=1;entryX=0.5;entryY=0;entryDx=0;entryDy=0;" edge="1" parent="1" source="dlbEdaYmd-LPvivF5Iul-19" target="dlbEdaYmd-LPvivF5Iul-22">
          <mxGeometry relative="1" as="geometry" />
        </mxCell>
        <mxCell id="dlbEdaYmd-LPvivF5Iul-19" value="«Component»&lt;br&gt;&lt;b&gt;Data Access Repository&lt;/b&gt;" style="html=1;dropTarget=0;whiteSpace=wrap;" vertex="1" parent="1">
          <mxGeometry x="335" y="750" width="180" height="90" as="geometry" />
        </mxCell>
        <mxCell id="dlbEdaYmd-LPvivF5Iul-20" value="" style="shape=module;jettyWidth=8;jettyHeight=4;" vertex="1" parent="dlbEdaYmd-LPvivF5Iul-19">
          <mxGeometry x="1" width="20" height="20" relative="1" as="geometry">
            <mxPoint x="-27" y="7" as="offset" />
          </mxGeometry>
        </mxCell>
        <mxCell id="dlbEdaYmd-LPvivF5Iul-24" style="edgeStyle=orthogonalEdgeStyle;rounded=0;orthogonalLoop=1;jettySize=auto;html=1;entryX=0.5;entryY=1;entryDx=0;entryDy=0;" edge="1" parent="1" source="dlbEdaYmd-LPvivF5Iul-22" target="dlbEdaYmd-LPvivF5Iul-19">
          <mxGeometry relative="1" as="geometry" />
        </mxCell>
        <mxCell id="dlbEdaYmd-LPvivF5Iul-22" value="Database" style="shape=datastore;whiteSpace=wrap;html=1;" vertex="1" parent="1">
          <mxGeometry x="395" y="910" width="60" height="60" as="geometry" />
        </mxCell>
        <mxCell id="dlbEdaYmd-LPvivF5Iul-27" style="edgeStyle=orthogonalEdgeStyle;rounded=0;orthogonalLoop=1;jettySize=auto;html=1;entryX=0.5;entryY=0;entryDx=0;entryDy=0;" edge="1" parent="1" source="dlbEdaYmd-LPvivF5Iul-25" target="dlbEdaYmd-LPvivF5Iul-17">
          <mxGeometry relative="1" as="geometry" />
        </mxCell>
        <mxCell id="dlbEdaYmd-LPvivF5Iul-25" value="«Component»&lt;br&gt;&lt;b&gt;API Controller&lt;/b&gt;" style="html=1;dropTarget=0;whiteSpace=wrap;" vertex="1" parent="1">
          <mxGeometry x="335" y="410" width="180" height="90" as="geometry" />
        </mxCell>
        <mxCell id="dlbEdaYmd-LPvivF5Iul-26" value="" style="shape=module;jettyWidth=8;jettyHeight=4;" vertex="1" parent="dlbEdaYmd-LPvivF5Iul-25">
          <mxGeometry x="1" width="20" height="20" relative="1" as="geometry">
            <mxPoint x="-27" y="7" as="offset" />
          </mxGeometry>
        </mxCell>
        <mxCell id="dlbEdaYmd-LPvivF5Iul-29" value="Web application" style="text;html=1;align=center;verticalAlign=middle;resizable=0;points=[];autosize=1;strokeColor=none;fillColor=none;" vertex="1" parent="1">
          <mxGeometry x="370" y="50" width="110" height="30" as="geometry" />
        </mxCell>
      </root>
    </mxGraphModel>
  </diagram>
</mxfile>
